<mxfile host="app.diagrams.net" modified="2022-09-24T20:38:49.055Z" agent="5.0 (X11; Linux x86_64) AppleWebKit/537.36 (KHTML, like Gecko) Chrome/105.0.0.0 Safari/537.36" etag="VoOL-fpl_ivbT5_dWyyh" version="20.3.6" type="github">
  <diagram id="W3kM5brpvc-LCr4-hFXW" name="Página-1">
    <mxGraphModel dx="826" dy="456" grid="1" gridSize="10" guides="1" tooltips="1" connect="1" arrows="1" fold="1" page="1" pageScale="1" pageWidth="827" pageHeight="1169" math="0" shadow="0">
      <root>
        <mxCell id="0" />
        <mxCell id="1" parent="0" />
        <mxCell id="JpC9l_Uxd58F9ilxonvs-4" style="edgeStyle=orthogonalEdgeStyle;rounded=0;orthogonalLoop=1;jettySize=auto;html=1;entryX=0;entryY=0.5;entryDx=0;entryDy=0;" edge="1" parent="1" source="JpC9l_Uxd58F9ilxonvs-1" target="JpC9l_Uxd58F9ilxonvs-2">
          <mxGeometry relative="1" as="geometry" />
        </mxCell>
        <mxCell id="JpC9l_Uxd58F9ilxonvs-1" value="Extrair características do jogo" style="rounded=1;whiteSpace=wrap;html=1;" vertex="1" parent="1">
          <mxGeometry x="220" y="150" width="120" height="60" as="geometry" />
        </mxCell>
        <mxCell id="JpC9l_Uxd58F9ilxonvs-5" style="edgeStyle=orthogonalEdgeStyle;rounded=0;orthogonalLoop=1;jettySize=auto;html=1;entryX=0;entryY=0.5;entryDx=0;entryDy=0;" edge="1" parent="1" source="JpC9l_Uxd58F9ilxonvs-2" target="JpC9l_Uxd58F9ilxonvs-3">
          <mxGeometry relative="1" as="geometry" />
        </mxCell>
        <mxCell id="JpC9l_Uxd58F9ilxonvs-2" value="Medir as distâncias" style="rounded=1;whiteSpace=wrap;html=1;" vertex="1" parent="1">
          <mxGeometry x="390" y="150" width="120" height="60" as="geometry" />
        </mxCell>
        <mxCell id="JpC9l_Uxd58F9ilxonvs-3" value="Agrupar" style="rounded=1;whiteSpace=wrap;html=1;" vertex="1" parent="1">
          <mxGeometry x="560" y="150" width="120" height="60" as="geometry" />
        </mxCell>
        <mxCell id="JpC9l_Uxd58F9ilxonvs-6" value="&lt;h1&gt;Features&lt;/h1&gt;&lt;p&gt;a) Jogo completo =&amp;gt; features n dimensionais&lt;/p&gt;&lt;p&gt;b) Características:&lt;/p&gt;&lt;p&gt;&lt;/p&gt;&lt;ol&gt;&lt;li&gt;Por algarismo XY: F = X+Y&lt;/li&gt;&lt;/ol&gt;&lt;p&gt;&lt;/p&gt;" style="text;html=1;strokeColor=none;fillColor=none;spacing=5;spacingTop=-20;whiteSpace=wrap;overflow=hidden;rounded=0;" vertex="1" parent="1">
          <mxGeometry x="90" y="290" width="450" height="230" as="geometry" />
        </mxCell>
      </root>
    </mxGraphModel>
  </diagram>
</mxfile>
